<mxfile host="65bd71144e">
    <diagram name="Page-1" id="LddHatU-Xv2Z0055FRX4">
        <mxGraphModel dx="711" dy="550" grid="1" gridSize="10" guides="1" tooltips="1" connect="1" arrows="1" fold="1" page="1" pageScale="1" pageWidth="850" pageHeight="1100" math="0" shadow="0">
            <root>
                <mxCell id="0"/>
                <mxCell id="1" parent="0"/>
                <object label="Category" id="2">
                    <mxCell style="swimlane;fontStyle=0;childLayout=stackLayout;horizontal=1;startSize=30;horizontalStack=0;resizeParent=1;resizeParentMax=0;resizeLast=0;collapsible=1;marginBottom=0;whiteSpace=wrap;html=1;rounded=0;swimlaneLine=1;shadow=0;strokeColor=default;" parent="1" vertex="1">
                        <mxGeometry x="40" y="40" width="140" height="110" as="geometry">
                            <mxRectangle x="40" y="40" width="90" height="30" as="alternateBounds"/>
                        </mxGeometry>
                    </mxCell>
                </object>
                <mxCell id="3" value="+ name: String&amp;nbsp;" style="text;strokeColor=none;fillColor=none;align=left;verticalAlign=middle;spacingLeft=4;spacingRight=4;overflow=hidden;points=[[0,0.5],[1,0.5]];portConstraint=eastwest;rotatable=0;whiteSpace=wrap;html=1;" parent="2" vertex="1">
                    <mxGeometry y="30" width="140" height="30" as="geometry"/>
                </mxCell>
                <mxCell id="25" value="" style="shape=crossbar;whiteSpace=wrap;html=1;rounded=1;shadow=0;glass=0;dashed=1;sketch=0;strokeColor=default;fillColor=none;" vertex="1" parent="2">
                    <mxGeometry y="60" width="140" height="20" as="geometry"/>
                </mxCell>
                <mxCell id="4" value="+ url: String" style="text;strokeColor=none;fillColor=none;align=left;verticalAlign=middle;spacingLeft=4;spacingRight=4;overflow=hidden;points=[[0,0.5],[1,0.5]];portConstraint=eastwest;rotatable=0;whiteSpace=wrap;html=1;container=0;" parent="2" vertex="1">
                    <mxGeometry y="80" width="140" height="30" as="geometry"/>
                </mxCell>
            </root>
        </mxGraphModel>
    </diagram>
</mxfile>